<svg width="24" height="24" viewBox="0 0 24 24" fill="none" xmlns="http://www.w3.org/2000/svg">
<path fill-rule="evenodd" clip-rule="evenodd" d="M4.5 4.83333V10.6667C4.5 11.1667 4.83333 11.5 5.33333 11.5C5.83333 11.5 6.16667 11.1667 6.16667 10.6667V4.83333C6.16667 4.33333 5.83333 4 5.33333 4C4.83333 4 4.5 4.33333 4.5 4.83333ZM11.1667 12.3333C11.1667 11.8333 11.5 11.5 12 11.5C12.5 11.5 12.8333 11.8333 12.8333 12.3333V19.8333C12.8333 20.3333 12.5 20.6667 12 20.6667C11.5 20.6667 11.1667 20.3333 11.1667 19.8333V12.3333ZM18.6667 13.1667C19.1667 13.1667 19.5 12.8333 19.5 12.3333V4.83333C19.5 4.33333 19.1667 4 18.6667 4C18.1667 4 17.8333 4.33333 17.8333 4.83333V12.3333C17.8333 12.8333 18.1667 13.1667 18.6667 13.1667ZM2 14C2 13.5 2.33333 13.1667 2.83333 13.1667H7.83333C8.33333 13.1667 8.66667 13.5 8.66667 14C8.66667 14.5 8.33333 14.8333 7.83333 14.8333H6.16667V19.8333C6.16667 20.3333 5.83333 20.6667 5.33333 20.6667C4.83333 20.6667 4.5 20.3333 4.5 19.8333V14.8333H2.83333C2.33333 14.8333 2 14.5 2 14ZM14.5 8.16667H12.8333V4.83333C12.8333 4.33333 12.5 4 12 4C11.5 4 11.1667 4.33333 11.1667 4.83333V8.16667H9.5C9 8.16667 8.66667 8.5 8.66667 9C8.66667 9.5 9 9.83333 9.5 9.83333H14.5C15 9.83333 15.3333 9.5 15.3333 9C15.3333 8.5 15 8.16667 14.5 8.16667ZM15.3333 15.6667C15.3333 15.1667 15.6667 14.8333 16.1667 14.8333H21.1667C21.6667 14.8333 22 15.1667 22 15.6667C22 16.1667 21.6667 16.5 21.1667 16.5H19.5V19.8333C19.5 20.3333 19.1667 20.6667 18.6667 20.6667C18.1667 20.6667 17.8333 20.3333 17.8333 19.8333V16.5H16.1667C15.6667 16.5 15.3333 16.1667 15.3333 15.6667Z" fill="black"/>
<mask id="mask0_2327_37322" style="mask-type:luminance" maskUnits="userSpaceOnUse" x="2" y="4" width="20" height="17">
<path fill-rule="evenodd" clip-rule="evenodd" d="M4.5 4.83333V10.6667C4.5 11.1667 4.83333 11.5 5.33333 11.5C5.83333 11.5 6.16667 11.1667 6.16667 10.6667V4.83333C6.16667 4.33333 5.83333 4 5.33333 4C4.83333 4 4.5 4.33333 4.5 4.83333ZM11.1667 12.3333C11.1667 11.8333 11.5 11.5 12 11.5C12.5 11.5 12.8333 11.8333 12.8333 12.3333V19.8333C12.8333 20.3333 12.5 20.6667 12 20.6667C11.5 20.6667 11.1667 20.3333 11.1667 19.8333V12.3333ZM18.6667 13.1667C19.1667 13.1667 19.5 12.8333 19.5 12.3333V4.83333C19.5 4.33333 19.1667 4 18.6667 4C18.1667 4 17.8333 4.33333 17.8333 4.83333V12.3333C17.8333 12.8333 18.1667 13.1667 18.6667 13.1667ZM2 14.0003C2 13.5003 2.33333 13.167 2.83333 13.167H7.83333C8.33333 13.167 8.66667 13.5003 8.66667 14.0003C8.66667 14.5003 8.33333 14.8337 7.83333 14.8337H6.16667V19.8337C6.16667 20.3337 5.83333 20.667 5.33333 20.667C4.83333 20.667 4.5 20.3337 4.5 19.8337V14.8337H2.83333C2.33333 14.8337 2 14.5003 2 14.0003ZM14.5 8.16667H12.8333V4.83333C12.8333 4.33333 12.5 4 12 4C11.5 4 11.1667 4.33333 11.1667 4.83333V8.16667H9.5C9 8.16667 8.66667 8.5 8.66667 9C8.66667 9.5 9 9.83333 9.5 9.83333H14.5C15 9.83333 15.3333 9.5 15.3333 9C15.3333 8.5 15 8.16667 14.5 8.16667ZM16.1667 14.833H21.1667C21.6667 14.833 22 15.1663 22 15.6663C22 16.1663 21.6667 16.4997 21.1667 16.4997H19.5V19.833C19.5 20.333 19.1667 20.6663 18.6667 20.6663C18.1667 20.6663 17.8333 20.333 17.8333 19.833V16.4997H16.1667C15.6667 16.4997 15.3333 16.1663 15.3333 15.6663C15.3333 15.1663 15.6667 14.833 16.1667 14.833Z" fill="white"/>
</mask>
<g mask="url(#mask0_2327_37322)">
<rect x="2" y="2.33301" width="20" height="20" fill="#1E2426"/>
</g>
</svg>
