<svg width="24" height="24" viewBox="0 0 24 24" fill="none" xmlns="http://www.w3.org/2000/svg">
<path fill-rule="evenodd" clip-rule="evenodd" d="M16.6527 3C18.2087 3 19.6732 3.65842 20.7716 4.78713C21.9615 5.91584 22.6022 7.51485 22.4192 9.11386C22.4192 10.7129 21.7784 12.3119 20.6801 13.4406L12.6253 21.7178C12.4423 21.9059 12.2592 22 11.9846 22C11.71 22 11.5269 21.9059 11.3439 21.7178L3.28914 13.4406C2.19077 12.3119 1.55005 10.7129 1.55005 9.11386C1.55005 7.51485 2.19077 5.91584 3.38067 4.78713C5.66895 2.43564 9.42173 2.43564 11.71 4.78713L12.0761 5.16337L12.4423 4.78713C13.5406 3.65842 15.0967 3 16.6527 3ZM12.0761 19.7428L19.4901 12.124C20.3139 11.2775 20.7716 10.2428 20.7716 9.11412C20.7716 7.98541 20.3139 6.95075 19.5817 6.10422C18.7579 5.35174 17.7511 4.88145 16.6527 4.88145C15.4628 4.88145 14.4559 5.35174 13.6322 6.10422L12.7168 7.13887C12.3507 7.51511 11.8015 7.51511 11.4354 7.13887L10.4286 6.10422C9.60478 5.25768 8.59794 4.88145 7.49957 4.88145C6.49272 4.88145 5.39435 5.25768 4.6621 6.10422C3.92985 6.95075 3.4722 7.98541 3.4722 9.11412C3.4722 10.2428 3.83832 11.2775 4.6621 12.124L12.0761 19.7428Z" fill="black"/>
<mask id="mask0_2327_37340" style="mask-type:luminance" maskUnits="userSpaceOnUse" x="1" y="3" width="22" height="19">
<path fill-rule="evenodd" clip-rule="evenodd" d="M16.6527 3C18.2087 3 19.6732 3.65842 20.7716 4.78713C21.9615 5.91584 22.6022 7.51485 22.4192 9.11386C22.4192 10.7129 21.7784 12.3119 20.6801 13.4406L12.6253 21.7178C12.4423 21.9059 12.2592 22 11.9846 22C11.71 22 11.5269 21.9059 11.3439 21.7178L3.28914 13.4406C2.19077 12.3119 1.55005 10.7129 1.55005 9.11386C1.55005 7.51485 2.19077 5.91584 3.38067 4.78713C5.66895 2.43564 9.42173 2.43564 11.71 4.78713L12.0761 5.16337L12.4423 4.78713C13.5406 3.65842 15.0967 3 16.6527 3ZM12.0761 19.7428L19.4901 12.124C20.3139 11.2775 20.7716 10.2428 20.7716 9.11412C20.7716 7.98541 20.3139 6.95075 19.5817 6.10422C18.7579 5.35174 17.7511 4.88145 16.6527 4.88145C15.4628 4.88145 14.4559 5.35174 13.6322 6.10422L12.7168 7.13887C12.3507 7.51511 11.8015 7.51511 11.4354 7.13887L10.4286 6.10422C9.60478 5.25768 8.59794 4.88145 7.49957 4.88145C6.49272 4.88145 5.39435 5.25768 4.6621 6.10422C3.92985 6.95075 3.4722 7.98541 3.4722 9.11412C3.4722 10.2428 3.83832 11.2775 4.6621 12.124L12.0761 19.7428Z" fill="white"/>
</mask>
<g mask="url(#mask0_2327_37340)">
<rect x="0.600098" y="1.09961" width="22.8" height="22.8" fill="#1E2426"/>
</g>
</svg>
