<svg width="24" height="24" viewBox="0 0 24 24" fill="none" xmlns="http://www.w3.org/2000/svg">
<path fill-rule="evenodd" clip-rule="evenodd" d="M19.5737 14.1432L23.0987 17.6683C23.4121 17.9816 23.4121 18.4517 23.0987 18.765C22.9421 18.9217 22.7071 19 22.5504 19C22.3937 19 22.1587 18.9217 22.002 18.765L18.477 15.2399C17.3019 16.1016 15.8919 16.65 14.3252 16.65C10.6435 16.65 7.66675 13.6732 7.66675 9.99148C7.66675 6.30974 10.6435 3.33301 14.3252 3.33301C18.007 3.33301 20.9837 6.30974 20.9837 9.99148C20.9837 11.5582 20.4353 13.0465 19.5737 14.1432ZM14.3252 4.90001C11.5052 4.90001 9.23344 7.17173 9.23344 9.99179C9.23344 12.8118 11.5052 15.0836 14.3252 15.0836C15.7352 15.0836 16.9886 14.5352 17.9286 13.5952C18.8686 12.6552 19.417 11.4018 19.417 9.99179C19.417 7.17173 17.1453 4.90001 14.3252 4.90001Z" fill="#1E2426"/>
<line x1="0.8" y1="5.86602" x2="5.2" y2="5.86602" stroke="#1E2426" stroke-width="1.6" stroke-linecap="round"/>
<line x1="0.8" y1="11.866" x2="5.2" y2="11.866" stroke="#1E2426" stroke-width="1.6" stroke-linecap="round"/>
<line x1="0.8" y1="17.866" x2="9.2" y2="17.866" stroke="#1E2426" stroke-width="1.6" stroke-linecap="round"/>
</svg>
