<svg width="16" height="16" viewBox="0 0 16 16" fill="none" xmlns="http://www.w3.org/2000/svg">
<path fill-rule="evenodd" clip-rule="evenodd" d="M0.666748 8.00033C0.666748 12.067 3.93341 15.3337 8.00008 15.3337C12.0667 15.3337 15.3334 12.067 15.3334 8.00033C15.3334 3.93366 12.0667 0.666992 8.00008 0.666992C3.93341 0.666992 0.666748 3.93366 0.666748 8.00033ZM2.00008 8.00033C2.00008 4.66699 4.66675 2.00033 8.00008 2.00033C11.3334 2.00033 14.0001 4.66699 14.0001 8.00033C14.0001 11.3337 11.3334 14.0003 8.00008 14.0003C4.66675 14.0003 2.00008 11.3337 2.00008 8.00033ZM8.66675 8.00033V5.33366C8.66675 4.93366 8.40008 4.66699 8.00008 4.66699C7.60008 4.66699 7.33341 4.93366 7.33341 5.33366V8.00033C7.33341 8.40033 7.60008 8.66699 8.00008 8.66699C8.40008 8.66699 8.66675 8.40033 8.66675 8.00033ZM8.60008 10.9337C8.60008 11.0003 8.53341 11.067 8.46675 11.1337C8.33341 11.267 8.20008 11.3337 7.93341 11.3337C7.73341 11.3337 7.60008 11.267 7.46675 11.1337C7.33341 11.0003 7.26675 10.867 7.26675 10.667C7.26675 10.5889 7.28962 10.5337 7.30858 10.4879C7.32198 10.4556 7.33341 10.4279 7.33341 10.4003C7.33341 10.3337 7.40008 10.267 7.46675 10.2003C7.66675 10.0003 7.93341 9.93366 8.20008 10.067C8.23341 10.067 8.25008 10.0837 8.26675 10.1003C8.28341 10.117 8.30008 10.1337 8.33341 10.1337C8.40008 10.1337 8.46675 10.2003 8.46675 10.2003C8.50008 10.2337 8.51675 10.267 8.53341 10.3003C8.55008 10.3337 8.56675 10.367 8.60008 10.4003C8.66675 10.467 8.66675 10.6003 8.66675 10.667C8.66675 10.7003 8.65008 10.7503 8.63341 10.8003C8.61675 10.8503 8.60008 10.9003 8.60008 10.9337Z" fill="black"/>
<mask id="mask0_1929_137078" style="mask-type:luminance" maskUnits="userSpaceOnUse" x="0" y="0" width="16" height="16">
<path fill-rule="evenodd" clip-rule="evenodd" d="M0.666748 8.00033C0.666748 12.067 3.93341 15.3337 8.00008 15.3337C12.0667 15.3337 15.3334 12.067 15.3334 8.00033C15.3334 3.93366 12.0667 0.666992 8.00008 0.666992C3.93341 0.666992 0.666748 3.93366 0.666748 8.00033ZM2.00008 8.00033C2.00008 4.66699 4.66675 2.00033 8.00008 2.00033C11.3334 2.00033 14.0001 4.66699 14.0001 8.00033C14.0001 11.3337 11.3334 14.0003 8.00008 14.0003C4.66675 14.0003 2.00008 11.3337 2.00008 8.00033ZM8.66675 8.00033V5.33366C8.66675 4.93366 8.40008 4.66699 8.00008 4.66699C7.60008 4.66699 7.33341 4.93366 7.33341 5.33366V8.00033C7.33341 8.40033 7.60008 8.66699 8.00008 8.66699C8.40008 8.66699 8.66675 8.40033 8.66675 8.00033ZM8.60008 10.9337C8.60008 11.0003 8.53341 11.067 8.46675 11.1337C8.33341 11.267 8.20008 11.3337 7.93341 11.3337C7.73341 11.3337 7.60008 11.267 7.46675 11.1337C7.33341 11.0003 7.26675 10.867 7.26675 10.667C7.26675 10.5889 7.28962 10.5337 7.30858 10.4879C7.32198 10.4556 7.33341 10.4279 7.33341 10.4003C7.33341 10.3337 7.40008 10.267 7.46675 10.2003C7.66675 10.0003 7.93341 9.93366 8.20008 10.067C8.23341 10.067 8.25008 10.0837 8.26675 10.1003C8.28341 10.117 8.30008 10.1337 8.33341 10.1337C8.40008 10.1337 8.46675 10.2003 8.46675 10.2003C8.50008 10.2337 8.51675 10.267 8.53341 10.3003C8.55008 10.3337 8.56675 10.367 8.60008 10.4003C8.66675 10.467 8.66675 10.6003 8.66675 10.667C8.66675 10.7003 8.65008 10.7503 8.63341 10.8003C8.61675 10.8503 8.60008 10.9003 8.60008 10.9337Z" fill="white"/>
</mask>
<g mask="url(#mask0_1929_137078)">
<rect width="16" height="16" fill="#1E2426"/>
</g>
</svg>
