<svg width="20" height="20" viewBox="0 0 20 20" fill="none" xmlns="http://www.w3.org/2000/svg">
<path fill-rule="evenodd" clip-rule="evenodd" d="M17.5 4.16683H14.1666V3.3335C14.1666 1.91683 13.0833 0.833496 11.6666 0.833496H8.33329C6.91663 0.833496 5.83329 1.91683 5.83329 3.3335V4.16683H2.49996C1.99996 4.16683 1.66663 4.50016 1.66663 5.00016C1.66663 5.50016 1.99996 5.8335 2.49996 5.8335H3.33329V16.6668C3.33329 18.0835 4.41663 19.1668 5.83329 19.1668H14.1666C15.5833 19.1668 16.6666 18.0835 16.6666 16.6668V5.8335H17.5C18 5.8335 18.3333 5.50016 18.3333 5.00016C18.3333 4.50016 18 4.16683 17.5 4.16683ZM7.49996 3.3335C7.49996 2.8335 7.83329 2.50016 8.33329 2.50016H11.6666C12.1666 2.50016 12.5 2.8335 12.5 3.3335V4.16683H7.49996V3.3335ZM14.1666 17.5002C14.6666 17.5002 15 17.1668 15 16.6668V5.8335H4.99996V16.6668C4.99996 17.1668 5.33329 17.5002 5.83329 17.5002H14.1666ZM9.16663 9.16683V14.1668C9.16663 14.6668 8.83329 15.0002 8.33329 15.0002C7.83329 15.0002 7.49996 14.6668 7.49996 14.1668V9.16683C7.49996 8.66683 7.83329 8.3335 8.33329 8.3335C8.83329 8.3335 9.16663 8.66683 9.16663 9.16683ZM12.5 14.1668V9.16683C12.5 8.66683 12.1666 8.3335 11.6666 8.3335C11.1666 8.3335 10.8333 8.66683 10.8333 9.16683V14.1668C10.8333 14.6668 11.1666 15.0002 11.6666 15.0002C12.1666 15.0002 12.5 14.6668 12.5 14.1668Z" fill="black"/>
<mask id="mask0_60_7328" style="mask-type:alpha" maskUnits="userSpaceOnUse" x="1" y="0" width="18" height="20">
<path fill-rule="evenodd" clip-rule="evenodd" d="M17.5 4.16683H14.1666V3.3335C14.1666 1.91683 13.0833 0.833496 11.6666 0.833496H8.33329C6.91663 0.833496 5.83329 1.91683 5.83329 3.3335V4.16683H2.49996C1.99996 4.16683 1.66663 4.50016 1.66663 5.00016C1.66663 5.50016 1.99996 5.8335 2.49996 5.8335H3.33329V16.6668C3.33329 18.0835 4.41663 19.1668 5.83329 19.1668H14.1666C15.5833 19.1668 16.6666 18.0835 16.6666 16.6668V5.8335H17.5C18 5.8335 18.3333 5.50016 18.3333 5.00016C18.3333 4.50016 18 4.16683 17.5 4.16683ZM7.49996 3.3335C7.49996 2.8335 7.83329 2.50016 8.33329 2.50016H11.6666C12.1666 2.50016 12.5 2.8335 12.5 3.3335V4.16683H7.49996V3.3335ZM14.1666 17.5002C14.6666 17.5002 15 17.1668 15 16.6668V5.8335H4.99996V16.6668C4.99996 17.1668 5.33329 17.5002 5.83329 17.5002H14.1666ZM9.16663 9.16683V14.1668C9.16663 14.6668 8.83329 15.0002 8.33329 15.0002C7.83329 15.0002 7.49996 14.6668 7.49996 14.1668V9.16683C7.49996 8.66683 7.83329 8.3335 8.33329 8.3335C8.83329 8.3335 9.16663 8.66683 9.16663 9.16683ZM12.5 14.1668V9.16683C12.5 8.66683 12.1666 8.3335 11.6666 8.3335C11.1666 8.3335 10.8333 8.66683 10.8333 9.16683V14.1668C10.8333 14.6668 11.1666 15.0002 11.6666 15.0002C12.1666 15.0002 12.5 14.6668 12.5 14.1668Z" fill="white"/>
</mask>
<g mask="url(#mask0_60_7328)">
<rect width="20" height="20" fill="#0088CC"/>
</g>
</svg>
