<svg width="20" height="20" viewBox="0 0 20 20" fill="none" xmlns="http://www.w3.org/2000/svg">
<path fill-rule="evenodd" clip-rule="evenodd" d="M13.9166 1.91699L18.0833 6.08366C18.4166 6.41699 18.4166 6.91699 18.0833 7.25033L7.24996 18.0837C7.08329 18.2503 6.91663 18.3337 6.66663 18.3337H2.49996C1.99996 18.3337 1.66663 18.0003 1.66663 17.5003V13.3337C1.66663 13.0837 1.74996 12.917 1.91663 12.7503L12.75 1.91699C13.0833 1.58366 13.5833 1.58366 13.9166 1.91699ZM3.33329 16.667H6.33329L16.3333 6.66699L13.3333 3.66699L3.33329 13.667V16.667Z" fill="black"/>
<mask id="mask0_2128_127882" style="mask-type:luminance" maskUnits="userSpaceOnUse" x="1" y="1" width="18" height="18">
<path fill-rule="evenodd" clip-rule="evenodd" d="M13.9166 1.91699L18.0833 6.08366C18.4166 6.41699 18.4166 6.91699 18.0833 7.25033L7.24996 18.0837C7.08329 18.2503 6.91663 18.3337 6.66663 18.3337H2.49996C1.99996 18.3337 1.66663 18.0003 1.66663 17.5003V13.3337C1.66663 13.0837 1.74996 12.917 1.91663 12.7503L12.75 1.91699C13.0833 1.58366 13.5833 1.58366 13.9166 1.91699ZM3.33329 16.667H6.33329L16.3333 6.66699L13.3333 3.66699L3.33329 13.667V16.667Z" fill="white"/>
</mask>
<g mask="url(#mask0_2128_127882)">
<rect width="20" height="20" fill="#737B84"/>
</g>
</svg>
