<svg width="24" height="24" viewBox="0 0 24 24" fill="none" xmlns="http://www.w3.org/2000/svg">
<path fill-rule="evenodd" clip-rule="evenodd" d="M20.8182 8.56073L12.6364 2.20431C12.2727 1.9319 11.8182 1.9319 11.5455 2.20431L3.36364 8.56073C3.09091 8.74234 3 9.01476 3 9.28717V19.2758C3 20.8195 4.18182 22 5.72727 22H18.4545C20 22 21.1818 20.8195 21.1818 19.2758V9.28717C21.1818 9.01476 21.0909 8.74234 20.8182 8.56073ZM13.9091 12.92V20.1845H10.2727V12.92H13.9091ZM18.4545 20.1841C19 20.1841 19.3636 19.8209 19.3636 19.276V9.7414L12.0909 4.11143L4.81818 9.7414V19.276C4.81818 19.8209 5.18182 20.1841 5.72727 20.1841H8.45455V12.0115C8.45455 11.4667 8.81818 11.1035 9.36364 11.1035H14.8182C15.3636 11.1035 15.7273 11.4667 15.7273 12.0115V20.1841H18.4545Z" fill="black"/>
<mask id="mask0_2327_37301" style="mask-type:luminance" maskUnits="userSpaceOnUse" x="3" y="2" width="19" height="20">
<path fill-rule="evenodd" clip-rule="evenodd" d="M20.8182 8.56073L12.6364 2.20431C12.2727 1.9319 11.8182 1.9319 11.5455 2.20431L3.36364 8.56073C3.09091 8.74234 3 9.01476 3 9.28717V19.2758C3 20.8195 4.18182 22 5.72727 22H18.4545C20 22 21.1818 20.8195 21.1818 19.2758V9.28717C21.1818 9.01476 21.0909 8.74234 20.8182 8.56073ZM13.9091 12.92V20.1845H10.2727V12.92H13.9091ZM18.4545 20.1841C19 20.1841 19.3636 19.8209 19.3636 19.276V9.7414L12.0909 4.11143L4.81818 9.7414V19.276C4.81818 19.8209 5.18182 20.1841 5.72727 20.1841H8.45455V12.0115C8.45455 11.4667 8.81818 11.1035 9.36364 11.1035H14.8182C15.3636 11.1035 15.7273 11.4667 15.7273 12.0115V20.1841H18.4545Z" fill="white"/>
</mask>
<g mask="url(#mask0_2327_37301)">
<rect x="1.18188" y="1.09082" width="21.8182" height="21.8182" fill="#1E2426"/>
</g>
</svg>
