<svg width="18" height="18" viewBox="0 0 18 18" fill="none" xmlns="http://www.w3.org/2000/svg">
<path d="M13.5178 4.50028C13.3531 4.50518 13.1967 4.57404 13.0819 4.69225L6.55482 11.2193L4.46666 9.13114C4.40823 9.07028 4.33824 9.02169 4.2608 8.98822C4.18335 8.95475 4.10001 8.93706 4.01564 8.9362C3.93128 8.93535 3.84759 8.95133 3.76948 8.98322C3.69137 9.01511 3.62041 9.06226 3.56075 9.12192C3.50109 9.18158 3.45394 9.25254 3.42205 9.33065C3.39016 9.40876 3.37417 9.49245 3.37503 9.57681C3.37589 9.66118 3.39357 9.74452 3.42705 9.82197C3.46052 9.89941 3.50911 9.9694 3.56997 10.0278L6.10648 12.5643C6.2254 12.6832 6.38667 12.75 6.55482 12.75C6.72298 12.75 6.88425 12.6832 7.00317 12.5643L13.9786 5.58894C14.0702 5.49987 14.1328 5.3852 14.1581 5.25994C14.1835 5.13469 14.1704 5.0047 14.1206 4.88702C14.0708 4.76933 13.9866 4.66944 13.879 4.60043C13.7715 4.53142 13.6456 4.49651 13.5178 4.50028Z" fill="white"/>
</svg>
