<svg width="18" height="18" viewBox="0 0 18 18" fill="none" xmlns="http://www.w3.org/2000/svg">
<path d="M15.5788 3.59035C14.755 2.74381 13.6566 2.25 12.4896 2.25C11.3226 2.25 10.1555 2.74381 9.33175 3.59035L9.05716 3.87252L8.78257 3.59035C7.06636 1.82673 4.25177 1.82673 2.53556 3.59035C1.64314 4.43688 1.1626 5.63614 1.1626 6.8354C1.1626 8.03465 1.64314 9.23391 2.46692 10.0804L8.50797 16.2884C8.64527 16.4295 8.78257 16.5 8.98851 16.5C9.19446 16.5 9.33175 16.4295 9.46905 16.2884L15.5101 10.0804C16.3339 9.23391 16.8144 8.03465 16.8144 6.8354C16.9517 5.63614 16.4712 4.43688 15.5788 3.59035Z" fill="#DC331D"/>
<mask id="mask0_2137_127959" style="mask-type:luminance" maskUnits="userSpaceOnUse" x="1" y="2" width="16" height="15">
<path fill-rule="evenodd" clip-rule="evenodd" d="M12.4896 2.25C13.6566 2.25 14.755 2.74381 15.5788 3.59035C16.4712 4.43688 16.9517 5.63614 16.8144 6.8354C16.8144 8.03465 16.3339 9.23391 15.5101 10.0804L9.46905 16.2884C9.33175 16.4295 9.19446 16.5 8.98851 16.5C8.78257 16.5 8.64527 16.4295 8.50797 16.2884L2.46692 10.0804C1.64314 9.23391 1.1626 8.03465 1.1626 6.8354C1.1626 5.63614 1.64314 4.43688 2.53556 3.59035C4.25177 1.82673 7.06636 1.82673 8.78257 3.59035L9.05716 3.87252L9.33175 3.59035C10.1555 2.74381 11.3226 2.25 12.4896 2.25ZM9.05715 14.8071L14.6177 9.09302C15.2355 8.45811 15.5787 7.68212 15.5787 6.83559C15.5787 5.98905 15.2355 5.21306 14.6863 4.57816C14.0685 4.01381 13.3134 3.66108 12.4896 3.66108C11.5971 3.66108 10.842 4.01381 10.2242 4.57816L9.53769 5.35415C9.2631 5.63633 8.85121 5.63633 8.57662 5.35415L7.82148 4.57816C7.20365 3.94326 6.44852 3.66108 5.62474 3.66108C4.8696 3.66108 4.04582 3.94326 3.49664 4.57816C2.94745 5.21306 2.60421 5.98905 2.60421 6.83559C2.60421 7.68212 2.8788 8.45811 3.49664 9.09302L9.05715 14.8071Z" fill="white"/>
</mask>
<g mask="url(#mask0_2137_127959)">
<rect x="0.450195" y="0.824219" width="17.1" height="17.1" fill="#DC331D"/>
</g>
</svg>
