<svg width="18" height="18" viewBox="0 0 18 18" fill="none" xmlns="http://www.w3.org/2000/svg">
<path fill-rule="evenodd" clip-rule="evenodd" d="M12.4895 2.25C13.6565 2.25 14.7549 2.74381 15.5786 3.59035C16.4711 4.43688 16.9516 5.63614 16.8143 6.8354C16.8143 8.03465 16.3338 9.23391 15.51 10.0804L9.46893 16.2884C9.33163 16.4295 9.19433 16.5 8.98839 16.5C8.78244 16.5 8.64515 16.4295 8.50785 16.2884L2.46679 10.0804C1.64301 9.23391 1.16248 8.03465 1.16248 6.8354C1.16248 5.63614 1.64301 4.43688 2.53544 3.59035C4.25165 1.82673 7.06623 1.82673 8.78244 3.59035L9.05704 3.87252L9.33163 3.59035C10.1554 2.74381 11.3224 2.25 12.4895 2.25ZM9.05703 14.8071L14.6175 9.09301C15.2354 8.45811 15.5786 7.68212 15.5786 6.83559C15.5786 5.98905 15.2354 5.21306 14.6862 4.57816C14.0684 4.01381 13.3132 3.66108 12.4895 3.66108C11.597 3.66108 10.8419 4.01381 10.2241 4.57816L9.53757 5.35415C9.26298 5.63633 8.85109 5.63633 8.57649 5.35415L7.82136 4.57816C7.20353 3.94326 6.44839 3.66108 5.62461 3.66108C4.86948 3.66108 4.0457 3.94326 3.49651 4.57816C2.94733 5.21306 2.60409 5.98905 2.60409 6.83559C2.60409 7.68212 2.87868 8.45811 3.49651 9.09301L9.05703 14.8071Z" fill="black"/>
<mask id="mask0_2137_128095" style="mask-type:luminance" maskUnits="userSpaceOnUse" x="1" y="2" width="16" height="15">
<path fill-rule="evenodd" clip-rule="evenodd" d="M12.4895 2.25C13.6565 2.25 14.7549 2.74381 15.5786 3.59035C16.4711 4.43688 16.9516 5.63614 16.8143 6.8354C16.8143 8.03465 16.3338 9.23391 15.51 10.0804L9.46893 16.2884C9.33163 16.4295 9.19433 16.5 8.98839 16.5C8.78244 16.5 8.64515 16.4295 8.50785 16.2884L2.46679 10.0804C1.64301 9.23391 1.16248 8.03465 1.16248 6.8354C1.16248 5.63614 1.64301 4.43688 2.53544 3.59035C4.25165 1.82673 7.06623 1.82673 8.78244 3.59035L9.05704 3.87252L9.33163 3.59035C10.1554 2.74381 11.3224 2.25 12.4895 2.25ZM9.05703 14.8071L14.6175 9.09301C15.2354 8.45811 15.5786 7.68212 15.5786 6.83559C15.5786 5.98905 15.2354 5.21306 14.6862 4.57816C14.0684 4.01381 13.3132 3.66108 12.4895 3.66108C11.597 3.66108 10.8419 4.01381 10.2241 4.57816L9.53757 5.35415C9.26298 5.63633 8.85109 5.63633 8.57649 5.35415L7.82136 4.57816C7.20353 3.94326 6.44839 3.66108 5.62461 3.66108C4.86948 3.66108 4.0457 3.94326 3.49651 4.57816C2.94733 5.21306 2.60409 5.98905 2.60409 6.83559C2.60409 7.68212 2.87868 8.45811 3.49651 9.09301L9.05703 14.8071Z" fill="white"/>
</mask>
<g mask="url(#mask0_2137_128095)">
<rect x="0.449951" y="0.824219" width="17.1" height="17.1" fill="#1E2426"/>
</g>
</svg>
