<svg width="22" height="22" viewBox="0 0 22 22" fill="none" xmlns="http://www.w3.org/2000/svg">
<path fill-rule="evenodd" clip-rule="evenodd" d="M19.2499 4.58366H15.5833V3.66699C15.5833 2.10866 14.3916 0.916992 12.8333 0.916992H9.16659C7.60825 0.916992 6.41659 2.10866 6.41659 3.66699V4.58366H2.74992C2.19992 4.58366 1.83325 4.95033 1.83325 5.50033C1.83325 6.05033 2.19992 6.41699 2.74992 6.41699H3.66659V18.3337C3.66659 19.892 4.85825 21.0837 6.41659 21.0837H15.5833C17.1416 21.0837 18.3333 19.892 18.3333 18.3337V6.41699H19.2499C19.7999 6.41699 20.1666 6.05033 20.1666 5.50033C20.1666 4.95033 19.7999 4.58366 19.2499 4.58366ZM8.24992 3.66699C8.24992 3.11699 8.61659 2.75033 9.16658 2.75033H12.8333C13.3833 2.75033 13.7499 3.11699 13.7499 3.66699V4.58366H8.24992V3.66699ZM15.5833 19.2503C16.1333 19.2503 16.4999 18.8837 16.4999 18.3337V6.41699H5.49992V18.3337C5.49992 18.8837 5.86659 19.2503 6.41658 19.2503H15.5833ZM10.0833 10.0837V15.5837C10.0833 16.1337 9.71659 16.5003 9.16658 16.5003C8.61659 16.5003 8.24992 16.1337 8.24992 15.5837V10.0837C8.24992 9.53366 8.61659 9.16699 9.16658 9.16699C9.71659 9.16699 10.0833 9.53366 10.0833 10.0837ZM13.7499 15.5837V10.0837C13.7499 9.53366 13.3833 9.16699 12.8333 9.16699C12.2833 9.16699 11.9166 9.53366 11.9166 10.0837V15.5837C11.9166 16.1337 12.2833 16.5003 12.8333 16.5003C13.3833 16.5003 13.7499 16.1337 13.7499 15.5837Z" fill="black"/>
<mask id="mask0_2061_126620" style="mask-type:luminance" maskUnits="userSpaceOnUse" x="1" y="0" width="20" height="22">
<path fill-rule="evenodd" clip-rule="evenodd" d="M19.2499 4.58366H15.5833V3.66699C15.5833 2.10866 14.3916 0.916992 12.8333 0.916992H9.16659C7.60825 0.916992 6.41659 2.10866 6.41659 3.66699V4.58366H2.74992C2.19992 4.58366 1.83325 4.95033 1.83325 5.50033C1.83325 6.05033 2.19992 6.41699 2.74992 6.41699H3.66659V18.3337C3.66659 19.892 4.85825 21.0837 6.41659 21.0837H15.5833C17.1416 21.0837 18.3333 19.892 18.3333 18.3337V6.41699H19.2499C19.7999 6.41699 20.1666 6.05033 20.1666 5.50033C20.1666 4.95033 19.7999 4.58366 19.2499 4.58366ZM8.24992 3.66699C8.24992 3.11699 8.61659 2.75033 9.16658 2.75033H12.8333C13.3833 2.75033 13.7499 3.11699 13.7499 3.66699V4.58366H8.24992V3.66699ZM15.5833 19.2503C16.1333 19.2503 16.4999 18.8837 16.4999 18.3337V6.41699H5.49992V18.3337C5.49992 18.8837 5.86659 19.2503 6.41658 19.2503H15.5833ZM10.0833 10.0837V15.5837C10.0833 16.1337 9.71659 16.5003 9.16658 16.5003C8.61659 16.5003 8.24992 16.1337 8.24992 15.5837V10.0837C8.24992 9.53366 8.61659 9.16699 9.16658 9.16699C9.71659 9.16699 10.0833 9.53366 10.0833 10.0837ZM13.7499 15.5837V10.0837C13.7499 9.53366 13.3833 9.16699 12.8333 9.16699C12.2833 9.16699 11.9166 9.53366 11.9166 10.0837V15.5837C11.9166 16.1337 12.2833 16.5003 12.8333 16.5003C13.3833 16.5003 13.7499 16.1337 13.7499 15.5837Z" fill="white"/>
</mask>
<g mask="url(#mask0_2061_126620)">
<rect width="22" height="22" fill="#737B84"/>
</g>
</svg>
