<svg width="24" height="24" viewBox="0 0 24 24" fill="none" xmlns="http://www.w3.org/2000/svg">
<path fill-rule="evenodd" clip-rule="evenodd" d="M5.4836 3.66667H2.83333C2.3731 3.66667 2 3.29357 2 2.83333C2 2.3731 2.3731 2 2.83333 2H6.16667C6.56386 2 6.90584 2.28032 6.98379 2.66979L7.68369 6.16667H21.1667C21.6895 6.16667 22.0832 6.64253 21.9852 7.15611L20.6507 14.154C20.4148 15.3418 19.3615 16.1897 18.1667 16.1667L10.0826 16.1665C8.87186 16.1897 7.81856 15.3418 7.58287 14.1552L6.19066 7.19934C6.18501 7.17633 6.18032 7.15294 6.17663 7.12923L5.4836 3.66667ZM7.83333 19.5014C7.83333 20.5022 8.49946 21.1694 9.49864 21.1694C10.4978 21.1694 11.1639 20.5022 11.1639 19.5014C11.1639 18.5005 10.4978 17.8333 9.49864 17.8333C8.49946 17.8333 7.83333 18.5005 7.83333 19.5014ZM17 19.5C17 20.5 17.6661 21.1667 18.6653 21.1667C19.6645 21.1667 20.3306 20.5 20.3306 19.5C20.3306 18.5 19.6645 17.8333 18.6653 17.8333C17.6661 17.8333 17 18.5 17 19.5ZM9.21737 13.8293L8.01727 7.83333H20.1594L19.0148 13.8356C18.9373 14.2252 18.5862 14.5079 18.1826 14.5002L10.0667 14.5C9.64711 14.5079 9.29601 14.2253 9.21737 13.8293Z" fill="#1E2426"/>
<mask id="mask0_2280_38028" style="mask-type:luminance" maskUnits="userSpaceOnUse" x="2" y="2" width="21" height="20">
<path fill-rule="evenodd" clip-rule="evenodd" d="M5.4836 3.66667H2.83333C2.3731 3.66667 2 3.29357 2 2.83333C2 2.3731 2.3731 2 2.83333 2H6.16667C6.56386 2 6.90584 2.28032 6.98379 2.66979L7.68369 6.16667H21.1667C21.6895 6.16667 22.0832 6.64253 21.9852 7.15611L20.6507 14.154C20.4148 15.3418 19.3615 16.1897 18.1667 16.1667L10.0826 16.1665C8.87186 16.1897 7.81856 15.3418 7.58287 14.1552L6.19066 7.19934C6.18501 7.17633 6.18032 7.15294 6.17663 7.12923L5.4836 3.66667ZM7.83333 19.5014C7.83333 20.5022 8.49946 21.1694 9.49864 21.1694C10.4978 21.1694 11.1639 20.5022 11.1639 19.5014C11.1639 18.5005 10.4978 17.8333 9.49864 17.8333C8.49946 17.8333 7.83333 18.5005 7.83333 19.5014ZM17 19.5C17 20.5 17.6661 21.1667 18.6653 21.1667C19.6645 21.1667 20.3306 20.5 20.3306 19.5C20.3306 18.5 19.6645 17.8333 18.6653 17.8333C17.6661 17.8333 17 18.5 17 19.5ZM9.21737 13.8293L8.01727 7.83333H20.1594L19.0148 13.8356C18.9373 14.2252 18.5862 14.5079 18.1826 14.5002L10.0667 14.5C9.64711 14.5079 9.29601 14.2253 9.21737 13.8293Z" fill="white"/>
</mask>
<g mask="url(#mask0_2280_38028)">
</g>
</svg>
